<svg xmlns="http://www.w3.org/2000/svg" id="flag-icons-az" viewBox="0 0 512 512">
  <path fill="#3f9c35" d="M0 0h512v512H0z"/>
  <path fill="#ed2939" d="M0 0h512v341.3H0z"/>
  <path fill="#00b9e4" d="M0 0h512v170.7H0z"/>
  <circle cx="238.8" cy="256" r="76.8" fill="#fff"/>
  <circle cx="255.9" cy="256" r="64" fill="#ed2939"/>
<<<<<<<< HEAD:include/vendor/flag-icons/flags/1x1/az.svg
  <path fill="#fff" d="m324.2 213.3 8.1 23 22-10.5-10.4 22 23 8.2-23 8.2 10.4 22-22-10.5-8.1 23-8.2-23-22 10.5 10.5-22-23-8.2 23-8.2-10.5-22 22 10.5 8.2-23z"/>
|||||||| 7dd05ee12:include/vendor/flag-icon-css/flags/1x1/az.svg
  <path fill="#fff" d="M324.2 213.3l8.1 23 22-10.5-10.4 22 23 8.2-23 8.2 10.4 22-22-10.5-8.1 23-8.2-23-22 10.5 10.5-22-23-8.2 23-8.2-10.5-22 22 10.5 8.2-23z"/>
========
  <path fill="#fff" d="m324.2 213.3 8.1 23 22-10.5-10.4 22 23 8.2-23 8.2 10.4 22-22-10.5-8.1 23-8.2-23-22 10.5 10.5-22-23-8.2 23-8.2-10.5-22 22 10.5z"/>
>>>>>>>> origin/fix/jquery-deprecations:include/vendor/lipis/flag-icons/flags/1x1/az.svg
</svg>
